<?xml version="1.0" encoding="UTF-8" standalone="no"?>
<!-- Created with Inkscape (http://www.inkscape.org/) -->

<svg
   xmlns:dc="http://purl.org/dc/elements/1.1/"
   xmlns:cc="http://creativecommons.org/ns#"
   xmlns:rdf="http://www.w3.org/1999/02/22-rdf-syntax-ns#"
   xmlns:svg="http://www.w3.org/2000/svg"
   xmlns="http://www.w3.org/2000/svg"
   xmlns:sodipodi="http://sodipodi.sourceforge.net/DTD/sodipodi-0.dtd"
   xmlns:inkscape="http://www.inkscape.org/namespaces/inkscape"
   version="1.1"
   xml:space="preserve"
   width="600.5195"
   viewBox="0 0 600.5195 120.7005"
   sodipodi:docname="Logo.wide.svg"
   inkscape:version="0.92.2 (5c3e80d, 2017-08-06)"
   height="100%"
   id="svg642"><metadata
     id="metadata8"><rdf:RDF><cc:Work
         rdf:about=""><dc:format>image/svg+xml</dc:format><dc:type
           rdf:resource="http://purl.org/dc/dcmitype/StillImage" /><dc:title /></cc:Work></rdf:RDF></metadata><defs
     id="defs6"><clipPath
       clipPathUnits="userSpaceOnUse"
       id="clipPath962"><path
         d="m 469.53418,256.33008 c 1.85059,0.13086 3.68457,-0.54785 4.99219,-1.86914 1.13672,-1.14746 1.84082,-2.72364 1.84863,-4.46485 0.73438,0.97364 1.41211,1.97168 2.03223,2.99024 0.86523,1.4209 1.61914,2.87988 2.26269,4.36426 0.57617,1.32812 1.06348,2.67675 1.46387,4.03515 1.32129,4.47559 1.69336,9.0586 1.18262,13.46387 -0.30176,-1.17285 -0.66602,-2.30957 -1.08594,-3.4082 -0.2793,-0.72852 -0.58301,-1.44043 -0.91016,-2.13477 -0.98535,-2.09082 -2.18066,-4.01953 -3.53808,-5.75781 -1.53516,-1.9668 -3.28028,-3.68945 -5.17383,-5.15039 -0.98731,-0.76074 -2.01465,-1.45117 -3.07422,-2.06836 z"
         id="path960"
         inkscape:connector-curvature="0" /></clipPath><clipPath
       clipPathUnits="userSpaceOnUse"
       id="clipPath1088"><path
         d="m 374.6792,256.33008 c -1.85059,0.13086 -3.68457,-0.54785 -4.99219,-1.86914 -1.13672,-1.14746 -1.84082,-2.72364 -1.84863,-4.46485 -0.73438,0.97364 -1.41211,1.97168 -2.03223,2.99024 -0.86523,1.4209 -1.61914,2.87988 -2.26269,4.36426 -0.57617,1.32812 -1.06348,2.67675 -1.46387,4.03515 -1.32129,4.47559 -1.69336,9.0586 -1.18262,13.46387 0.30176,-1.17285 0.66602,-2.30957 1.08594,-3.4082 0.2793,-0.72852 0.58301,-1.44043 0.91016,-2.13477 0.98535,-2.09082 2.18066,-4.01953 3.53808,-5.75781 1.53516,-1.9668 3.28028,-3.68945 5.17383,-5.15039 0.98731,-0.76074 2.01465,-1.45117 3.07422,-2.06836 z"
         id="path1086"
         inkscape:connector-curvature="0" /></clipPath></defs><sodipodi:namedview
     pagecolor="#ffffff"
     bordercolor="#666666"
     borderopacity="1"
     objecttolerance="10"
     gridtolerance="10"
     guidetolerance="10"
     inkscape:pageopacity="0"
     inkscape:pageshadow="2"
     inkscape:window-width="1366"
     inkscape:window-height="715"
     id="namedview4"
     showgrid="false"
     inkscape:zoom="0.8180949"
     inkscape:cx="566.41928"
     inkscape:cy="-26.70305"
     inkscape:window-x="-8"
     inkscape:window-y="-8"
     inkscape:window-maximized="1"
     inkscape:current-layer="g10"
     inkscape:snap-page="true" /><g
     id="g10"
     inkscape:groupmode="layer"
     inkscape:label="Logo"
     transform="matrix(1.3333333,0,0,-1.3333333,0,793.70052)"><path
       d="m 420.17137,532.31743 3.18583,-3.36081 -1.5929,-3.79784 -2.35518,2.06135 c 0,0 -0.83364,0.43005 -0.14129,2.38389 l 0.90344,2.71341 z"
       style="fill:#ffffff;fill-opacity:1;fill-rule:nonzero;stroke:none;stroke-width:1.90827787"
       id="path12"
       inkscape:connector-curvature="0" /><path
       d="m 423.99765,532.31743 3.18434,-3.36081 -1.5914,-3.79784 -2.35524,2.06135 c 0,0 -0.83359,0.43005 -0.13958,2.38389 l 0.90195,2.71341 z"
       style="fill:#ffffff;fill-opacity:1;fill-rule:nonzero;stroke:none;stroke-width:1.90827787"
       id="path14"
       inkscape:connector-curvature="0" /><path
       d="m 186.87704,569.08998 3.18285,-3.36316 -1.5914,-3.79553 -2.35523,2.06137 c 0,0 -0.83212,0.43238 -0.1382,2.38389 l 0.902,2.71343 z"
       style="fill:#ffffff;fill-opacity:1;fill-rule:nonzero;stroke:none;stroke-width:1.90827787"
       id="path16"
       inkscape:connector-curvature="0" /><path
       d="m 190.70183,569.08998 3.18433,-3.36316 -1.59142,-3.79553 -2.35519,2.06137 c 0,0 -0.83213,0.43238 -0.13974,2.38389 l 0.90197,2.71343 z"
       style="fill:#ffffff;fill-opacity:1;fill-rule:nonzero;stroke:none;stroke-width:1.90827787"
       id="path18"
       inkscape:connector-curvature="0" /><path
       d="m 419.80287,540.35951 c -6.87095,-6.33362 -6.37315,3.73241 -6.37315,3.73241 -0.33138,-1.56118 -3.15909,-6.85481 -3.15909,-6.85481 -5.70748,-6.68187 -8.81161,5.72598 -8.81161,5.72598 -1.66274,4.34008 -4.43253,3.12477 -4.43253,3.12477 -3.60487,-1.64771 -4.37902,-9.80665 -4.37902,-9.80665 -0.88563,-9.28778 -1.94213,-10.67369 -1.94213,-10.67369 -1.71624,-5.2095 -3.49192,-0.52119 -3.49192,-0.52119 -2.49193,5.20715 -2.60488,13.71435 -2.60488,13.71435 -0.33285,7.20069 4.54399,10.67134 4.54399,10.67134 1.5008,1.65003 0.89008,1.91179 0.89008,1.91179 -2.82919,-0.26176 -5.15769,-5.29595 -5.15769,-5.29595 -2.49186,-4.51535 -1.21845,-13.79847 -1.21845,-13.79847 1.77422,-10.41428 4.87832,-13.36609 4.87832,-13.36609 3.43696,-2.42829 4.04471,7.55132 4.04471,7.55132 0.6672,6.16066 1.43988,9.98187 1.43988,9.98187 0.55572,3.81891 3.60336,4.07832 3.60336,4.07832 2.38346,0 3.71633,-5.20714 3.71633,-5.20714 2.87974,-8.50716 6.98093,-3.90304 6.98093,-3.90304 1.99707,1.99359 3.99118,6.59541 3.99118,6.59541 0.1101,-2.34646 1.38788,-4.08062 1.38788,-4.08062 2.10556,-3.12476 4.54102,0.86942 4.54102,0.86942 l 2.16351,3.64124 z"
       style="fill:#ffffff;fill-opacity:1;fill-rule:nonzero;stroke:none;stroke-width:1.90827787"
       id="path20"
       inkscape:connector-curvature="0" /><path
       d="m 411.25281,550.98648 c 0,0 -1.29424,0.65207 -0.92574,2.68072 0,0 0.96883,1.08209 1.52607,0.35756 0,0 0.60032,-0.7245 0.69097,0.07 l 0.92423,2.53345 c 0,0 -1.43094,1.30413 -2.81731,-0.5048 0,0 -3.51128,-5.28193 -0.69246,-8.24543 0,0 1.06244,-0.2173 1.06244,-0.79462 l -0.60032,-2.38856 c 0,0 0.23034,-0.21731 0.87521,0.86707 0,0 1.43392,3.03826 2.77423,3.90768 0,0 1.47702,1.87909 1.57063,3.54077 0,0 -2.49635,-3.32574 -4.38795,-2.02396 z"
       style="fill:#ffffff;fill-opacity:1;fill-rule:nonzero;stroke:none;stroke-width:1.90827787"
       id="path22"
       inkscape:connector-curvature="0" /><path
       d="m 378.02588,566.88369 c 0,0 2.03276,3.32575 0.82915,4.62753 0,0 -2.12339,-0.43471 -1.66127,6.07658 0,0 -2.49487,-0.43471 -1.38489,-8.96993 l 1.75489,-35.1459 c 0,0 0.55425,-6.79871 -0.27936,-8.68012 0,0 2.12784,0.86708 2.03425,8.53525 0,0 -1.47851,30.37576 -1.29277,33.55659 m -5.54103,2.89339 c 0,0 -3.05061,1.01198 -2.12637,8.10052 0,0 -2.1234,0.14483 -1.93914,-6.21912 0,0 2.12338,-30.23088 2.58402,-34.57094 0,0 1.29572,-9.39997 -0.64488,-8.96527 0,0 -4.80555,-2.31844 -5.72678,3.1785 0,0 -0.83363,4.48497 -1.10853,8.10053 0,0 -1.75636,-0.57727 -1.01638,-5.06223 0,0 1.29128,-6.2168 -1.66126,-6.50894 0,0 -0.36255,-0.18452 -0.81429,-0.15651 v -4.7631 c 0.94059,0.33188 2.11895,1.57524 3.11897,5.21183 0,0 1.29573,-6.80108 5.91401,-5.35674 0,0 3.69403,1.59395 3.78764,11.57353 l -1.94062,30.66557 c 0,0 1.57361,2.02397 1.57361,4.77244 z"
       style="fill:#ffffff;fill-opacity:1;fill-rule:evenodd;stroke:none;stroke-width:1.90827787"
       id="path24"
       inkscape:connector-curvature="0" /><path
       d="m 394.36518,556.49979 1.43987,4.43124 c 0,0 3.21556,-0.17542 2.88271,-3.21124 0,0 -0.55425,-2.86534 -1.38784,-3.82123 0,0 0.22288,2.77887 -2.93474,2.60123 z"
       style="fill:#ffffff;fill-opacity:1;fill-rule:evenodd;stroke:none;stroke-width:1.90827787"
       id="path26"
       inkscape:connector-curvature="0" /><path
       d="m 394.36518,562.8311 1.43987,4.43121 c 0,0 3.21556,-0.17758 2.88271,-3.21591 0,0 -0.55425,-2.863 -1.38784,-3.81885 0,0 0.22288,2.78118 -2.93474,2.60355 z"
       style="fill:#ffffff;fill-opacity:1;fill-rule:nonzero;stroke:none;stroke-width:1.90827787"
       id="path28"
       inkscape:connector-curvature="0" /><path
       d="m 46.570858,542.61955 c -6.872455,-6.33132 -6.376145,3.73473 -6.376145,3.73473 -0.331369,-1.56121 -3.157614,-6.85715 -3.157614,-6.85715 -5.710433,-6.67954 -8.811567,5.72599 -8.811567,5.72599 -1.664243,4.34006 -4.434035,3.12708 -4.434035,3.12708 -3.604868,-1.65236 -4.379045,-9.80896 -4.379045,-9.80896 -0.885607,-9.28546 -1.942105,-10.67606 -1.942105,-10.67606 -1.716243,-5.20478 -3.490455,-0.51885 -3.490455,-0.51885 -2.493386,5.20949 -2.603359,13.71432 -2.603359,13.71432 -0.33432,7.20075 4.542498,10.6714 4.542498,10.6714 1.499315,1.65234 0.890091,1.91175 0.890091,1.91175 -2.82923,-0.25941 -5.157677,-5.2936 -5.157677,-5.2936 -2.4919179,-4.51535 -1.216984,-13.79844 -1.216984,-13.79844 1.771215,-10.41664 4.87683,-13.36843 4.87683,-13.36843 3.436957,-2.43065 4.046188,7.55361 4.046188,7.55361 0.665703,6.15837 1.438381,9.97958 1.438381,9.97958 0.555753,3.82122 3.603395,4.07831 3.603395,4.07831 2.381951,0 3.714823,-5.20949 3.714823,-5.20949 2.88271,-8.50485 6.982402,-3.90068 6.982402,-3.90068 1.995608,1.99589 3.991222,6.59305 3.991222,6.59305 0.10999,-2.34414 1.387857,-4.08063 1.387857,-4.08063 2.104072,-3.12241 4.542493,0.86942 4.542493,0.86942 l 2.162033,3.64592 z"
       style="fill:#ffffff;fill-opacity:1;fill-rule:nonzero;stroke:none;stroke-width:1.90827787"
       id="path30"
       inkscape:connector-curvature="0" /><path
       d="m 21.130198,558.76216 1.43987,4.42885 c 0,0 3.215564,-0.17518 2.881225,-3.20888 0,0 -0.552762,-2.86767 -1.383407,-3.82354 0,0 0.221409,2.77885 -2.937688,2.60357 z"
       style="fill:#ffffff;fill-opacity:1;fill-rule:evenodd;stroke:none;stroke-width:1.90827787"
       id="path32"
       inkscape:connector-curvature="0" /><path
       d="m 21.130198,565.09113 1.43987,4.42654 c 0,0 3.215564,-0.17303 2.881225,-3.2089 0,0 -0.552762,-2.86298 -1.383407,-3.8189 0,0 0.221409,2.77655 -2.937688,2.60126 z"
       style="fill:#ffffff;fill-opacity:1;fill-rule:nonzero;stroke:none;stroke-width:1.90827787"
       id="path34"
       inkscape:connector-curvature="0" /><path
       d="m 41.792093,522.83098 -2.639008,2.76017 c 0,0 0.490345,4.98045 2.373025,4.10403 0,0 1.75339,-1.19897 2.263067,-2.60593 0,0 -1.737052,0.67075 -1.997084,-4.25827 z"
       style="fill:#ffffff;fill-opacity:1;fill-rule:evenodd;stroke:none;stroke-width:1.90827787"
       id="path36"
       inkscape:connector-curvature="0" /><path
       d="m 37.777102,523.5742 -2.640504,2.76484 c 0,0 0.493332,4.97809 2.376008,4.10167 0,0 1.754883,-1.19661 2.260098,-2.60824 0,0 -1.735561,0.67076 -1.995602,-4.25827 z"
       style="fill:#ffffff;fill-opacity:1;fill-rule:nonzero;stroke:none;stroke-width:1.90827787"
       id="path38"
       inkscape:connector-curvature="0" /><path
       d="m 79.888427,572.30587 -2.891631,2.052 c 0,0 -0.03568,5.03651 1.916858,4.65322 0,0 1.851465,-0.73151 2.500815,-1.99123 0,0 -1.784599,0.21971 -1.526042,-4.71399 z"
       style="fill:#ffffff;fill-opacity:1;fill-rule:evenodd;stroke:none;stroke-width:1.90827787"
       id="path40"
       inkscape:connector-curvature="0" /><path
       d="m 75.848168,572.01605 -2.890131,2.052 c 0,0 -0.03431,5.03888 1.916858,4.65791 0,0 1.854438,-0.73616 2.500805,-1.9959 0,0 -1.781626,0.21971 -1.527532,-4.71401 z"
       style="fill:#ffffff;fill-opacity:1;fill-rule:nonzero;stroke:none;stroke-width:1.90827787"
       id="path42"
       inkscape:connector-curvature="0" /><path
       d="m 359.33284,545.3493 1.44137,4.42655 c 0,0 3.21405,-0.17758 2.87974,-3.20888 0,0 -0.5513,-2.86532 -1.3849,-3.8259 0,0 0.22289,2.78119 -2.93621,2.60823 z"
       style="fill:#ffffff;fill-opacity:1;fill-rule:evenodd;stroke:none;stroke-width:1.90827787"
       id="path44"
       inkscape:connector-curvature="0" /><path
       d="m 359.33284,551.67596 1.44137,4.42885 c 0,0 3.21405,-0.17517 2.87974,-3.2089 0,0 -0.5513,-2.8653 -1.3849,-3.8212 0,0 0.22289,2.77652 -2.93621,2.60125 z"
       style="fill:#ffffff;fill-opacity:1;fill-rule:nonzero;stroke:none;stroke-width:1.90827787"
       id="path46"
       inkscape:connector-curvature="0" /><path
       d="m 254.44831,566.88369 c 0,0 2.03277,3.32575 0.82915,4.62753 0,0 -2.12339,-0.43471 -1.66274,6.07658 0,0 -2.49192,-0.43471 -1.38341,-8.96993 l 1.75491,-35.1459 c 0,0 0.55572,-6.79871 -0.27792,-8.68012 0,0 2.12639,0.86708 2.03131,8.53525 0,0 -1.47702,30.37576 -1.2913,33.55659 z"
       style="fill:#ffffff;fill-opacity:1;fill-rule:evenodd;stroke:none;stroke-width:1.90827787"
       id="path48"
       inkscape:connector-curvature="0" /><path
       d="m 240.01694,558.20824 -2.81582,2.29742 c 0,0 0.14408,5.03183 2.08029,4.48263 0,0 1.82175,-0.89512 2.42651,-2.20629 0,0 -1.77271,0.37396 -1.69098,-4.57376 z"
       style="fill:#ffffff;fill-opacity:1;fill-rule:evenodd;stroke:none;stroke-width:1.90827787"
       id="path50"
       inkscape:connector-curvature="0" /><path
       d="m 235.97371,558.27135 -2.81137,2.29742 c 0,0 0.14129,5.03184 2.07585,4.48028 0,0 1.82177,-0.89279 2.42801,-2.20393 0,0 -1.77419,0.37159 -1.69249,-4.57377 z"
       style="fill:#ffffff;fill-opacity:1;fill-rule:nonzero;stroke:none;stroke-width:1.90827787"
       id="path52"
       inkscape:connector-curvature="0" /><path
       d="m 213.11414,528.23678 1.43987,4.42655 c 0,0 3.21407,-0.17757 2.87824,-3.21121 0,0 -0.5498,-2.863 -1.3834,-3.82121 0,0 0.22142,2.77883 -2.93471,2.60587 z"
       style="fill:#ffffff;fill-opacity:1;fill-rule:evenodd;stroke:none;stroke-width:1.90827787"
       id="path54"
       inkscape:connector-curvature="0" /><path
       d="m 303.89719,521.2324 1.43985,4.43121 c 0,0 3.21407,-0.17757 2.88124,-3.21122 0,0 -0.55129,-2.86533 -1.38492,-3.82125 0,0 0.22142,2.78121 -2.93617,2.60126 z"
       style="fill:#ffffff;fill-opacity:1;fill-rule:evenodd;stroke:none;stroke-width:1.90827787"
       id="path56"
       inkscape:connector-curvature="0" /><path
       d="m 303.89719,527.56368 1.43985,4.4289 c 0,0 3.21407,-0.17759 2.88124,-3.21356 0,0 -0.55129,-2.863 -1.38492,-3.8189 0,0 0.22142,2.78119 -2.93617,2.60356 z"
       style="fill:#ffffff;fill-opacity:1;fill-rule:nonzero;stroke:none;stroke-width:1.90827787"
       id="path58"
       inkscape:connector-curvature="0" /><path
       d="m 205.41256,522.81228 1.44282,4.42889 c 0,0 3.21407,-0.17518 2.87827,-3.21124 0,0 -0.55128,-2.86297 -1.38192,-3.8212 0,0 0.2214,2.78119 -2.93917,2.60355 z"
       style="fill:#ffffff;fill-opacity:1;fill-rule:evenodd;stroke:none;stroke-width:1.90827787"
       id="path60"
       inkscape:connector-curvature="0" /><path
       d="m 205.41256,529.1436 1.44282,4.42653 c 0,0 3.21407,-0.17516 2.87827,-3.20887 0,0 -0.55128,-2.86535 -1.38192,-3.82121 0,0 0.2214,2.77652 -2.93917,2.60355 z"
       style="fill:#ffffff;fill-opacity:1;fill-rule:nonzero;stroke:none;stroke-width:1.90827787"
       id="path62"
       inkscape:connector-curvature="0" /><path
       d="m 360.14119,527.62914 c -8.5545,-4.18114 -11.65564,-2.14782 -11.65564,-2.14782 -6.65252,3.76278 -8.59315,8.82503 -8.59315,8.82503 0.37148,0.86942 3.88126,3.61787 3.88126,3.61787 h 1.38488 l 1.29425,5.20482 c -7.48168,4.77478 -17.45972,-0.43705 -17.45972,-0.43705 l -1.01488,0.29214 -1.10999,-2.16652 -2.31063,-0.72685 -0.83064,-5.20481 4.15767,2.31142 c 2.77125,-1.15686 5.91397,-5.06223 5.91397,-5.06223 -1.75634,-2.74847 -5.72972,-4.33773 -5.72972,-4.33773 -8.31231,-2.89104 -8.49806,9.97957 -8.49806,9.97957 l -2.12339,36.74215 c -0.0935,3.03596 -0.64787,5.0599 -0.64787,5.0599 -2.02979,-1.73414 -1.65979,-7.37834 -1.65979,-7.37834 l 2.39979,-37.6069 c 0.46063,-6.5089 2.30915,-8.82033 2.30915,-8.82033 5.4489,-9.25973 16.90396,4.62752 16.90396,4.62752 9.88589,-15.76634 23.56836,-7.33161 23.56836,-7.33161 l -0.17981,4.55977 m -26.19695,11.41927 c 0,0 1.60924,1.64998 6.2082,0.87174 l -2.71481,-3.9077 z"
       style="fill:#ffffff;fill-opacity:1;fill-rule:nonzero;stroke:none;stroke-width:1.90827787"
       id="path64"
       inkscape:connector-curvature="0" /><path
       d="m 299.79898,548.34317 c -3.25419,2.27874 -4.15914,-5.0996 -4.15914,-5.0996 0,-1.95388 -0.68947,-1.84168 -0.68947,-1.84168 l -1.31651,-0.43705 c 1.24519,-14.09994 -13.71815,-20.71639 -13.71815,-20.71639 10.18459,-1.73884 13.85632,13.34274 13.85632,13.34274 0.76377,2.2787 2.56174,1.30177 2.56174,1.30177 1.45623,-1.62432 5.75354,-3.04061 5.75354,-3.04061 1.31505,13.34506 -2.28833,16.49082 -2.28833,16.49082 m -3.87978,-7.91589 c 0,0 0.55576,4.12273 2.91095,2.49142 0,0 1.94063,-0.8671 1.94063,-4.33538 0,0 -3.53357,-0.43473 -4.85158,1.84396 z"
       style="fill:#ffffff;fill-opacity:1;fill-rule:evenodd;stroke:none;stroke-width:1.90827787"
       id="path66"
       inkscape:connector-curvature="0" /><path
       d="m 305.75163,539.37793 c 0,0 1.73109,0.43001 2.14568,3.57816 0,0 0.20952,2.60355 0.97031,3.68565 0,0 0.90048,-1.84166 1.04016,-8.24073 0,0 0.4844,-9.5472 4.50238,-8.24542 0,0 3.11747,0.54455 3.25714,4.01287 l 0.76379,-1.84403 c 0,0 -0.42051,-5.20479 -3.60341,-6.94128 0,0 -3.74305,-1.73883 -5.19925,3.36313 0,0 -1.10704,4.44526 -1.31357,9.87208 0,0 -1.45919,-4.11338 -5.81891,-3.09204 -0.0683,0.0192 -0.14129,0.0375 -0.21099,0.0538 -4.52319,1.20364 0.0951,4.0713 0.0951,4.0713 0,0 1.54386,-1.14518 3.37158,-0.27342 z"
       style="fill:#ffffff;fill-opacity:1;fill-rule:nonzero;stroke:none;stroke-width:1.90827787"
       id="path68"
       inkscape:connector-curvature="0" /><path
       d="m 276.34651,551.12205 c -2.77276,3.25562 -5.81891,0.32488 -5.81891,0.32488 -2.63309,-3.68802 -1.10849,-10.08712 -1.10849,-10.08712 2.14865,-4.23023 5.54252,-0.11218 5.54252,-0.11218 2.63306,1.52382 3.18731,-1.29714 3.18731,-1.29714 0.13664,-8.68013 -7.89922,-12.91267 -7.89922,-12.91267 -7.20529,-5.74936 -17.59789,-7.59103 -17.59789,-7.59103 14.55173,-3.36312 22.1701,6.51126 22.1701,6.51126 4.08932,5.20484 4.29881,14.42247 4.29881,14.42247 0.61963,6.61646 -2.77423,10.74149 -2.77423,10.74149 m -6.02696,-5.20478 c 0,0 2.42506,2.60355 4.50238,0.10744 0,0 -2.76976,-2.38621 -4.50238,-0.10744 z"
       style="fill:#ffffff;fill-opacity:1;fill-rule:nonzero;stroke:none;stroke-width:1.90827787"
       id="path70"
       inkscape:connector-curvature="0" /><path
       d="m 246.77052,565.98858 c 0,0 -1.0372,8.24541 0.84848,9.63368 0,0 -2.01346,1.21297 -2.12344,6.85248 0,0 -1.55279,-1.12649 -1.55279,-3.47066 0,0 0.66273,-14.75433 2.32848,-28.20455 0,0 0.77563,-6.07424 0.33137,-9.97958 0,0 -0.77419,-3.04062 -3.32406,-2.51945 0,0 -3.04914,-0.43235 -3.82477,5.55539 0,0 -0.50077,9.9819 -1.27495,10.84666 0,0 -1.33139,-6.08826 -2.56767,-6.87351 -0.0474,-0.0304 -0.0981,-0.0538 -0.14871,-0.0656 -1.27345,-0.35057 -2.05208,0.78059 -3.04914,3.73008 0,0 -2.04761,-1.29945 -0.83062,-5.38009 0,0 4.10266,-5.64186 2.60631,-12.84492 0,0 -2.71777,-9.11248 -13.30356,-13.36844 0,0 -7.59311,-4.16241 -10.80865,-5.72362 0,0 4.26908,-0.86707 10.53081,2.08238 0,0 10.19943,3.55947 13.1371,12.32139 0,0 2.54987,5.99009 1.66277,14.40847 l 1.99409,3.81886 c 0,0 0.22292,-13.01783 4.32409,-13.62551 0,0 5.93034,-1.56121 6.53958,11.01959 0,0 0.60923,8.76661 -1.49484,21.78681 z"
       style="fill:#ffffff;fill-opacity:1;fill-rule:evenodd;stroke:none;stroke-width:1.90827787"
       id="path72"
       inkscape:connector-curvature="0" /><path
       d="m 203.65915,538.08782 c -1.47256,-1.82531 -3.3686,-1.15221 -3.3686,-1.15221 -3.27201,0.26176 -3.10264,8.59132 -3.10264,8.59132 v 8.93954 h 0.27639 l 9.36732,5.81482 -9.64371,-3.55713 -0.11148,6.7707 c 0.0548,2.34414 -0.66568,3.72772 -0.66568,3.72772 -0.83065,-0.68945 -0.99856,-3.72772 -0.99856,-3.72772 l 0.16791,-7.5513 c -6.98237,-2.77652 -8.64662,-9.1125 -8.64662,-9.1125 -1.66129,-6.16539 1.05501,-7.63543 1.05501,-7.63543 4.7104,-2.34648 7.81451,6.07186 7.81451,6.07186 0.16495,-14.14432 4.20965,-13.97373 4.20965,-13.97373 2.48743,-0.056 3.73561,2.19693 4.31663,3.82825 l -0.67017,2.96581 m -7.9111,11.00091 c 0,0 -1.66571,-6.85716 -6.87391,-4.60416 0,0 -1.88565,0.86942 -0.39081,3.38651 0,0 3.99421,4.51536 7.26472,5.55304 z"
       style="fill:#ffffff;fill-opacity:1;fill-rule:evenodd;stroke:none;stroke-width:1.90827787"
       id="path74"
       inkscape:connector-curvature="0" /><path
       d="m 215.20038,549.9488 c -1.52606,-1.51915 -0.69687,-5.20715 -0.69687,-5.20715 -0.13681,-0.86939 0.97028,-3.69033 0.97028,-3.69033 -1.10701,-1.94917 -3.46518,-0.64974 -3.46518,-0.64974 -3.04616,0.64974 -3.04616,7.59338 -3.04616,7.59338 -0.69393,0 -0.69393,-1.73417 -0.69393,-1.73417 0.27935,-7.81305 -5.82041,-8.89513 -5.82041,-8.89513 v -4.77243 c 3.05211,0.43236 5.67925,7.80835 5.67925,7.80835 1.52753,-5.8545 3.74454,-5.64183 3.74454,-5.64183 3.74159,-0.86709 4.71189,6.29157 4.71189,6.29157 1.10701,6.29625 -1.38341,8.89748 -1.38341,8.89748 z"
       style="fill:#ffffff;fill-opacity:1;fill-rule:evenodd;stroke:none;stroke-width:1.90827787"
       id="path76"
       inkscape:connector-curvature="0" /><path
       d="m 99.538383,534.08666 c -4.017958,-6.18409 -12.330257,-8.35295 -12.330257,-8.35295 -10.392615,-1.84398 -12.539774,3.14346 -12.539774,3.14346 -3.533565,5.85919 -0.760806,15.62375 -0.760806,15.62375 -3.67175,-3.90302 -2.564724,-14.75433 -2.564724,-14.75433 0.482931,-10.52415 10.808675,-8.78997 10.808675,-8.78997 14.477424,0.86941 17.528061,12.04559 17.528061,12.04559 0.414572,1.4093 -0.141209,1.08445 -0.141209,1.08445 m -1.334347,21.02489 c 0,0 1.787564,2.5311 1.787564,7.45311 l -0.340269,9.99128 c 0,0 -0.08172,3.33276 0.851433,3.33276 0,0 -2.209576,1.46305 -1.873756,6.79404 0,0 -1.869305,-0.80162 -1.527541,-4.92902 0,0 1.615201,-18.51713 1.102569,-22.64217 m 31.060458,-15.60508 c 0,0 2.00897,5.7517 -0.48741,8.14024 0,0 -3.39387,2.9261 -8.86804,-3.25563 0,0 -3.87977,-4.55975 -8.52183,-16.37867 0,0 -2.97929,-6.51124 -5.68071,-7.37831 0,0 -3.53206,-0.76191 -4.02092,5.09961 0,0 -1.03572,7.59339 0.90343,12.36582 0,0 0.82915,3.36079 0.13969,5.6395 0,0 1.94064,0 3.32403,5.09963 0,0 0.1368,1.30178 0.48442,-0.21971 0,0 0.34772,-6.17938 4.36715,-5.747 0,0 2.97782,0.21732 3.80845,5.96671 0,0 0.97031,5.85686 -1.17686,7.59336 0,0 -1.8693,-4.33773 -0.2095,-7.15866 0,0 0.48737,-2.27871 -1.72964,-1.30176 0,0 -3.67174,0.21731 -3.67174,6.28922 0,0 -2.08031,-5.64187 -4.71337,-6.07186 0,0 -1.73408,-0.43239 -2.35521,1.73645 0,0 -0.83063,2.16888 -1.800951,5.20483 0,0 -2.078812,-1.84401 -1.456204,-4.87994 l 3.257155,-9.54721 c 0,0 1.04015,-2.38389 0.62113,-3.47298 0,0 -1.45176,-6.94128 -0.62113,-12.04094 0,0 0.55424,-7.15866 4.91993,-7.59568 0,0 3.4637,-0.21517 6.99725,8.24541 0,0 5.60939,12.58548 9.35245,15.8411 0,0 5.61089,4.12271 7.13843,-2.17353 m 29.48682,-2.52877 c -3.41466,0 -5.26614,-7.66583 -5.26614,-7.66583 -2.58254,-6.79871 -6.8338,-3.61788 -6.8338,-3.61788 -2.58849,1.59392 -2.40125,10.85131 -2.40125,10.85131 0.46361,6.07425 -0.8336,15.76636 -0.8336,15.76636 -0.45916,5.6395 -1.84406,9.39995 -1.84406,9.39995 -1.84998,-3.61554 -0.74147,-7.37599 -0.74147,-7.37599 2.12637,-7.95563 1.57061,-20.68367 1.57061,-20.68367 -1.75488,-4.62987 -8.40441,-7.66815 -8.40441,-7.66815 -6.37318,-3.75813 -9.60953,-0.14484 -9.60953,-0.14484 -2.30914,2.17352 0.37,8.10521 0.37,8.10521 -3.41765,-3.6179 -2.86191,-9.98194 -2.86191,-9.98194 0.18277,-6.50892 8.49658,-4.19516 8.49658,-4.19516 9.79673,2.02397 12.8414,13.88494 12.8414,13.88494 -0.18424,-1.15922 0.18279,-4.77477 0.18279,-4.77477 0.73998,-10.55683 5.35974,-8.67781 5.35974,-8.67781 2.21405,0.43475 5.08189,6.07659 5.08189,6.07659 1.01487,0.2898 1.93766,-2.31379 1.93766,-2.31379 1.38636,-4.19516 3.0506,-0.29213 3.0506,-0.29213 2.67912,12.15077 -0.0952,13.30766 -0.0952,13.30766 m -0.55276,-9.68978 c 0,0 -1.84552,-0.14499 -2.49341,3.47065 0,0 2.58555,2.89338 3.51275,-1.30411 0,0 0.36703,-2.31145 -1.01934,-2.16654 m -69.003734,3.25799 c 0,0 2.679132,3.47064 3.786159,10.4096 0,0 1.477027,9.54954 -0.832122,28.78652 0,0 -0.737026,4.19281 1.386368,7.37368 0,0 -2.677643,2.31608 -2.123394,7.38069 0,0 -2.957003,0.14484 -1.754881,-14.1771 0,0 2.401274,-21.69564 2.217002,-26.90512 0,0 0.370011,-7.95325 -2.035713,-8.38797 0,0 -5.168081,-2.74616 -7.389541,2.31373 l -1.289799,-3.90302 c 0,0 2.771269,-6.50889 8.035921,-2.89101 z"
       style="fill:#ffffff;fill-opacity:1;fill-rule:evenodd;stroke:none;stroke-width:1.90827787"
       id="path78"
       inkscape:connector-curvature="0" /><path
       d="m 167.9626,569.77708 c 0,0 -3.04914,1.01198 -2.1234,8.10052 0,0 -2.12786,0.14483 -1.94211,-6.21912 0,0 2.12489,-30.23088 2.58256,-34.57094 0,0 1.29721,-9.39997 -0.64045,-8.96527 0,0 -4.80549,-2.31844 -5.73126,3.1785 0,0 -0.21099,1.14754 -0.45615,2.74381 v -8.73857 c 0.87224,-1.67337 2.37748,-3.32571 4.89022,-2.54046 0,0 3.69549,1.59394 3.78762,11.57352 l -1.94064,30.66558 c 0,0 1.57361,2.02395 1.57361,4.77243 z"
       style="fill:#ffffff;fill-opacity:1;fill-rule:evenodd;stroke:none;stroke-width:1.90827787"
       id="path80"
       inkscape:connector-curvature="0" /><path
       d="m 176.33582,569.77708 c 0,0 -3.0506,1.01198 -2.12487,8.10052 0,0 -2.12784,0.14483 -1.94064,-6.21912 0,0 2.12489,-30.23088 2.58406,-34.57094 0,0 1.29572,-9.39997 -0.64342,-8.96527 0,0 -4.80699,-2.31844 -5.72826,3.1785 0,0 -0.21101,1.14754 -0.45767,2.74381 v -8.73857 c 0.87076,-1.67337 2.37599,-3.32571 4.89168,-2.54046 0,0 3.69255,1.59394 3.78613,11.57352 l -1.9391,30.66558 c 0,0 1.57209,2.02395 1.57209,4.77243 z"
       style="fill:#ffffff;fill-opacity:1;fill-rule:evenodd;stroke:none;stroke-width:1.90827787"
       id="path82"
       inkscape:connector-curvature="0" /><path
       d="m 133.94813,571.85945 c 0,0 2.03276,3.32341 0.82914,4.62521 0,0 -2.12488,-0.4347 -1.66125,6.07655 0,0 -2.49489,-0.4347 -1.38639,-8.96758 l 1.75488,-35.15056 c 0,0 0.55574,-6.79639 -0.27489,-8.67546 0,0 2.12341,0.86711 2.03128,8.53289 0,0 -1.47702,30.37347 -1.29277,33.55895 z"
       style="fill:#ffffff;fill-opacity:1;fill-rule:evenodd;stroke:none;stroke-width:1.90827787"
       id="path84"
       inkscape:connector-curvature="0" /><path
       d="m 75.770901,549.74078 c 1.387863,1.20132 4.57223,4.12037 4.57223,4.12037 3.463698,4.99449 0.417518,14.10699 0.417518,14.10699 -2.358152,5.85451 -5.683678,-0.43705 -5.683678,-0.43705 -4.572218,-6.72162 -1.797986,-14.75202 -1.797986,-14.75202 -0.696893,-1.30644 -3.466661,-1.51914 -3.466661,-1.51914 0.139661,1.73416 -0.968828,4.77244 -0.968828,4.77244 -2.217017,8.6778 -6.51285,4.98979 -6.51285,4.98979 -4.017965,-7.16101 -1.661272,-12.15081 -1.661272,-12.15081 2.07584,-4.98975 7.89624,-2.3862 7.89624,-2.3862 2.494884,-6.5066 -4.292865,-12.14608 -4.292865,-12.14608 -4.575177,-6.29625 -21.340961,-16.7082 -21.340961,-16.7082 5.263189,2.16885 7.481687,1.94917 7.481687,1.94917 9.420803,4.55508 14.826645,11.50107 14.826645,11.50107 5.820378,8.02805 4.989734,16.27346 4.989734,16.27346 2.352238,0.43474 5.541047,2.38621 5.541047,2.38621 m -1.94211,13.01553 c 0,0 1.24818,3.47065 4.02094,3.25797 0,0 3.741568,-4.3424 2.771272,-8.0304 0,0 0.139662,-3.25097 -4.157663,-3.68567 0,0 -4.017947,2.60356 -2.634549,8.4581 m -12.466967,-6.50659 c 0,0 4.017948,3.68803 6.37316,-5.20713 0,0 -5.817434,-3.47066 -6.37316,5.20713 z"
       style="fill:#ffffff;fill-opacity:1;fill-rule:evenodd;stroke:none;stroke-width:1.90827787"
       id="path86"
       inkscape:connector-curvature="0" /><path
       d="m 82.448686,537.33994 c 0,0 -3.842612,7.37833 -2.105555,16.52121 0,0 -3.184367,-12.0199 0.815764,-20.42423"
       style="fill:#ffffff;fill-opacity:1;fill-rule:evenodd;stroke:none;stroke-width:1.90827787"
       id="path88"
       inkscape:connector-curvature="0" /><path
       d="m 53.492319,557.02098 c -3.254193,2.27872 -4.157637,-5.10196 -4.157637,-5.10196 0,-1.95387 -0.689473,-1.84403 -0.689473,-1.84403 l -1.316547,-0.43235 c 0.239253,-2.70406 -0.127803,-5.12535 -0.857359,-7.28486 l 0.528974,-1.65238 c 0.310562,0.9489 0.465113,1.56356 0.465113,1.56356 0.760788,2.27871 2.563223,1.29713 2.563223,1.29713 1.453235,-1.622 5.752049,-3.03596 5.752049,-3.03596 1.315045,13.34038 -2.288343,16.49085 -2.288343,16.49085 m -3.878284,-7.91823 c 0,0 0.552769,4.12038 2.907971,2.49139 0,0 1.942127,-0.86942 1.942127,-4.33771 0,0 -3.533568,-0.43239 -4.850098,1.84632 z"
       style="fill:#ffffff;fill-opacity:1;fill-rule:evenodd;stroke:none;stroke-width:1.90827787"
       id="path90"
       inkscape:connector-curvature="0" /><path
       d="m 20.917714,582.29947 c -2.147177,-0.97693 -3.322537,-5.42683 -3.322537,-5.42683 -0.417562,1.84631 -2.704415,4.66258 -2.704415,4.66258 -1.799444,1.62899 -1.799444,-2.49138 -1.799444,-2.49138 -0.208044,-2.2787 1.383397,-0.43705 1.383397,-0.43705 0.69392,0.11218 1.664245,-2.16653 1.664245,-2.16653 1.313562,-2.39091 2.771249,-5.20715 2.771249,-5.20715 l -0.139678,4.88227 c 0.414571,3.68802 2.769775,2.60357 2.769775,2.60357 1.524555,1.95387 -0.622614,3.58052 -0.622614,3.58052 M 10.734607,554.20238 c -1.4547424,-0.21969 -0.55426,6.07424 -0.55426,6.07424 0.138162,1.0844 -0.2065399,2.60356 -0.2065399,2.60356 -1.2511524,-2.17351 -1.4591957,-8.02806 -1.4591957,-8.02806 -0.1352639,-5.20482 2.6360536,-3.25095 2.6360536,-3.25095 1.592915,2.16419 1.10701,5.30995 1.10701,5.30995 -0.06986,-1.62429 -1.523068,-2.70874 -1.523068,-2.70874 m 36.718864,26.90279 c -6.859062,-4.23253 -15.725615,-7.59334 -15.725615,-7.59334 0.552761,9.43969 -3.74158,8.89513 -3.74158,8.89513 l -0.833603,-2.39087 c 3.671725,-0.75259 3.811414,-5.30998 3.811414,-5.30998 0.416063,-1.30414 -0.485909,-2.06604 -0.485909,-2.06604 l -1.9421,-1.07975 c -1.864849,-0.76192 -2.768295,-3.36314 -2.768295,-3.36314 4.503855,2.49371 20.645539,10.08474 20.645539,10.08474 0,0 -0.968825,-0.43237 0.279355,0.32487 1.245218,0.7619 0.760794,2.49838 0.760794,2.49838 M 34.912206,561.46622 c 1.040143,-3.46832 -0.138145,-3.46832 -0.138145,-3.46832 -1.45475,0.10508 -1.594425,3.46832 -1.594425,3.46832 -0.06684,1.73647 -0.622604,1.73647 -0.622604,1.73647 -0.619632,0 -0.414584,-1.84167 -0.414584,-1.84167 l 0.414584,-3.25792 c 0,-1.8417 -1.524568,-1.94686 -1.524568,-1.94686 -1.591436,0 -1.107022,4.01288 -1.107022,4.01288 0.136799,2.49136 -0.551278,2.92607 -0.551278,2.92607 -1.319513,-7.80836 0.413091,-8.68012 0.413091,-8.68012 2.150145,-1.62431 3.255669,2.27872 3.255669,2.27872 1.248192,-1.84167 2.83814,0.11218 2.83814,0.11218 1.178344,5.20482 -0.479955,8.0281 -0.479955,8.0281 l -0.488871,-3.36784 z"
       style="fill:#ffffff;fill-opacity:1;fill-rule:nonzero;stroke:none;stroke-width:1.90827787"
       id="path92"
       inkscape:connector-curvature="0" /><path
       d="m 299.00101,561.38908 c -0.41457,-3.03592 -1.73258,-0.8694 -1.73258,-0.8694 -1.03717,2.71342 -0.3477,7.15864 -0.3477,7.15864 -1.10701,-2.05668 -1.17684,-6.18406 -1.17684,-6.18406 -0.0683,-4.55743 1.73256,-4.66259 1.73256,-4.66259 2.42504,-0.21967 2.35521,4.12273 2.35521,4.12273 -0.41606,2.93076 -0.83065,0.43468 -0.83065,0.43468 z"
       style="fill:#ffffff;fill-opacity:1;fill-rule:nonzero;stroke:none;stroke-width:1.90827787"
       id="path94"
       inkscape:connector-curvature="0" /><path
       d="m 263.96869,537.2745 c -0.41307,-3.03592 -1.72963,-0.86707 -1.72963,-0.86707 -1.03867,2.71109 -0.34921,7.15866 -0.34921,7.15866 -1.10551,-2.05901 -1.17834,-6.18409 -1.17834,-6.18409 -0.0668,-4.55508 1.73407,-4.66257 1.73407,-4.66257 2.42358,-0.21972 2.35374,4.12271 2.35374,4.12271 -0.41456,2.92841 -0.83063,0.43236 -0.83063,0.43236 z"
       style="fill:#ffffff;fill-opacity:1;fill-rule:nonzero;stroke:none;stroke-width:1.90827787"
       id="path96"
       inkscape:connector-curvature="0" /><path
       d="m 300.73363,581.22439 -0.76229,-2.71579 c 0,0 -0.62408,4.77479 -2.98078,3.90772 0,0 -2.69995,-1.73649 -0.89897,-4.34006 0,0 1.03866,2.49606 2.42502,0.10743 0,0 1.5944,-2.059 1.2482,-5.74701 0,0 1.2437,0.32253 0.82916,4.6626 0,0 0.0683,4.01284 2.01045,3.47298 0,0 1.31356,0 1.3819,1.73183 0,0 -1.93615,2.1712 -3.25269,-1.07976 z"
       style="fill:#ffffff;fill-opacity:1;fill-rule:nonzero;stroke:none;stroke-width:1.90827787"
       id="path98"
       inkscape:connector-curvature="0" /><path
       d="m 386.90431,577.10636 c 0.40866,-4.37749 3.37456,-2.76253 3.37456,-2.76253 0.22589,-1.89773 -3.32848,-6.45518 -3.32848,-6.45518 5.01502,2.38156 6.17257,11.22528 6.17257,11.22528 -0.47549,4.4289 -3.58853,3.30239 -3.58853,3.30239 -2.37006,-1.48408 -2.63012,-5.30996 -2.63012,-5.30996 m 2.86043,3.65761 c 0,0 2.90354,-0.91148 1.2482,-4.69533 0,0 -1.56173,-0.92551 -2.86189,1.73183 0,0 -0.55725,3.02193 1.61369,2.9635 z"
       style="fill:#ffffff;fill-opacity:1;fill-rule:nonzero;stroke:none;stroke-width:1.90827787"
       id="path100"
       inkscape:connector-curvature="0" /><path
       d="m 438.56575,567.52875 c 1.52754,0.64974 1.1798,3.79787 1.1798,3.79787 -2.21998,-4.55745 -1.8039,4.33536 -1.8039,4.33536 -1.87076,-7.376 0.6241,-8.13323 0.6241,-8.13323 z"
       style="fill:#ffffff;fill-opacity:1;fill-rule:nonzero;stroke:none;stroke-width:1.90827787"
       id="path102"
       inkscape:connector-curvature="0" /><path
       d="m 375.2457,516.76145 c 1.52606,0.64975 1.17983,3.79786 1.17983,3.79786 -2.21851,-4.55508 -1.80242,4.33773 -1.80242,4.33773 -1.87081,-7.37603 0.62259,-8.13559 0.62259,-8.13559 z"
       style="fill:#ffffff;fill-opacity:1;fill-rule:nonzero;stroke:none;stroke-width:1.90827787"
       id="path104"
       inkscape:connector-curvature="0" /><path
       d="m 402.96578,574.28307 c 1.52604,0.6474 1.17686,3.79554 1.17686,3.79554 -2.21703,-4.55743 -1.80245,4.33771 -1.80245,4.33771 -1.86929,-7.37603 0.62559,-8.13325 0.62559,-8.13325 z"
       style="fill:#ffffff;fill-opacity:1;fill-rule:nonzero;stroke:none;stroke-width:1.90827787"
       id="path106"
       inkscape:connector-curvature="0" /><path
       d="m 412.58866,517.93938 c 1.52755,0.65203 1.17834,3.80018 1.17834,3.80018 -2.21702,-4.55743 -1.80242,4.33773 -1.80242,4.33773 -1.86931,-7.37602 0.62408,-8.13791 0.62408,-8.13791 z"
       style="fill:#ffffff;fill-opacity:1;fill-rule:nonzero;stroke:none;stroke-width:1.90827787"
       id="path108"
       inkscape:connector-curvature="0" /><path
       d="m 284.17438,571.0438 c -0.69094,-3.47064 -6.16513,-8.13557 -6.16513,-8.13557 4.8486,1.08443 6.44302,6.8338 6.44302,6.8338 0.61963,1.73415 -0.27789,1.30177 -0.27789,1.30177 z"
       style="fill:#ffffff;fill-opacity:1;fill-rule:nonzero;stroke:none;stroke-width:1.90827787"
       id="path110"
       inkscape:connector-curvature="0" /><path
       d="m 49.920139,565.12385 c 8.038904,1.73649 6.096773,10.30442 6.096773,10.30442 0,4.34242 2.008993,3.58282 2.008993,3.58282 l 0.624088,2.92846 c -1.24819,1.19192 -2.150142,-1.08678 -2.150142,-1.08678 -0.482939,-2.16652 -1.243736,-3.7955 -1.243736,-3.7955 -0.209503,1.29944 -2.148659,3.04061 -2.148659,3.04061 -1.318027,0.53521 -1.595877,-0.32719 -1.595877,-0.32719 l -0.277872,-1.41398 c -0.413104,-1.51914 0.416068,-1.62431 0.416068,-1.62431 2.358164,1.29944 3.60634,-4.01286 3.60634,-4.01286 0.206556,-4.77477 -5.335976,-7.59569 -5.335976,-7.59569 z"
       style="fill:#ffffff;fill-opacity:1;fill-rule:nonzero;stroke:none;stroke-width:1.90827787"
       id="path112"
       inkscape:connector-curvature="0" /><path
       d="m 284.86685,560.40983 c 0,0 -1.59144,-2.49138 -1.45325,-8.02339 0,0 1.79948,-18.76956 1.52456,-24.62644 0,0 1.80096,4.77479 -0.0712,18.98227 0,0 -0.83066,8.02806 -0.13665,10.63161 0,0 1.66126,1.5168 3.53353,0.86942 0,0 2.21555,1.40931 1.17838,3.58048 0,0 -3.32702,1.51916 -4.57521,-1.41395 z"
       style="fill:#ffffff;fill-opacity:1;fill-rule:nonzero;stroke:none;stroke-width:1.90827787"
       id="path114"
       inkscape:connector-curvature="0" /><path
       d="m 332.09573,562.34499 c 0,0 0.0699,7.26849 2.0788,13.77974 0,0 -2.28686,-3.36547 -3.60634,-13.45254 0,0 -1.10556,-8.35529 2.35815,-9.65942 0,0 2.77424,-0.7572 2.63308,5.86155 0,0 -2.90947,-2.49837 -3.46369,3.47067 z"
       style="fill:#ffffff;fill-opacity:1;fill-rule:nonzero;stroke:none;stroke-width:1.90827787"
       id="path116"
       inkscape:connector-curvature="0" /><path
       d="m 288.12401,582.41632 c -0.83212,-1.18962 -1.80391,-4.6626 -1.80391,-4.6626 -0.62113,1.73415 -2.97782,4.6626 -2.97782,4.6626 -1.10701,0.86941 -1.45325,-0.53988 -1.45325,-0.53988 l -0.41309,-3.03828 c 0.62111,0.86941 1.52012,0.54455 1.52012,0.54455 3.19028,-1.73883 3.04912,-8.14026 3.04912,-8.14026 0.48592,0.21492 0.96882,2.4961 0.96882,2.4961 -0.41456,4.88227 1.59591,5.85919 1.59591,5.85919 1.86929,0.1098 1.45472,2.71106 1.45472,2.71106 -0.69539,1.51914 -1.94062,0.10743 -1.94062,0.10743 z"
       style="fill:#ffffff;fill-opacity:1;fill-rule:nonzero;stroke:none;stroke-width:1.90827787"
       id="path118"
       inkscape:connector-curvature="0" /><path
       d="m 225.44144,547.58595 c -3.3285,-5.53435 -0.48591,-9.65472 -0.48591,-9.65472 1.72964,1.84167 1.24818,4.23023 1.24818,4.23023 -2.63456,-4.88228 -0.76227,5.42449 -0.76227,5.42449 z"
       style="fill:#ffffff;fill-opacity:1;fill-rule:nonzero;stroke:none;stroke-width:1.90827787"
       id="path120"
       inkscape:connector-curvature="0" /><path
       d="m 199.64861,525.88563 c -3.32551,-5.53433 -0.48588,-9.65703 -0.48588,-9.65703 1.73407,1.84398 1.24669,4.23254 1.24669,4.23254 -2.63307,-4.88229 -0.76081,5.42449 -0.76081,5.42449 z"
       style="fill:#ffffff;fill-opacity:1;fill-rule:nonzero;stroke:none;stroke-width:1.90827787"
       id="path122"
       inkscape:connector-curvature="0" /><path
       d="m 209.65639,560.24391 c -3.32406,-5.53436 -0.48443,-9.65473 -0.48443,-9.65473 1.7326,1.844 1.24669,4.23023 1.24669,4.23023 -2.63009,-4.87997 -0.76226,5.4245 -0.76226,5.4245 z"
       style="fill:#ffffff;fill-opacity:1;fill-rule:nonzero;stroke:none;stroke-width:1.90827787"
       id="path124"
       inkscape:connector-curvature="0" /><path
       d="m 162.69051,548.19128 c -3.32549,-5.53436 -0.48442,-9.65704 -0.48442,-9.65704 1.73111,1.84399 1.24672,4.23021 1.24672,4.23021 -2.6316,-4.88227 -0.7623,5.42683 -0.7623,5.42683 z"
       style="fill:#ffffff;fill-opacity:1;fill-rule:nonzero;stroke:none;stroke-width:1.90827787"
       id="path126"
       inkscape:connector-curvature="0" /><path
       d="m 141.90232,581.94888 c -3.32553,-5.53198 -0.4859,-9.65703 -0.4859,-9.65703 1.73262,1.84631 1.24819,4.23255 1.24819,4.23255 -2.63456,-4.8823 -0.76229,5.42448 -0.76229,5.42448 z"
       style="fill:#ffffff;fill-opacity:1;fill-rule:nonzero;stroke:none;stroke-width:1.90827787"
       id="path128"
       inkscape:connector-curvature="0" /><path
       d="m 149.98579,543.97042 c -3.32554,-5.53668 -0.48442,-9.65705 -0.48442,-9.65705 1.7326,1.84164 1.24672,4.2302 1.24672,4.2302 -2.63308,-4.87993 -0.7623,5.42685 -0.7623,5.42685 z"
       style="fill:#ffffff;fill-opacity:1;fill-rule:nonzero;stroke:none;stroke-width:1.90827787"
       id="path130"
       inkscape:connector-curvature="0" /><path
       d="m 154.2207,525.28498 c -3.32403,-5.53435 -0.48738,-9.65703 -0.48738,-9.65703 1.73409,1.844 1.24819,4.23254 1.24819,4.23254 -2.63011,-4.88229 -0.76081,5.42449 -0.76081,5.42449 z"
       style="fill:#ffffff;fill-opacity:1;fill-rule:nonzero;stroke:none;stroke-width:1.90827787"
       id="path132"
       inkscape:connector-curvature="0" /><path
       d="m 141.12965,525.88798 c -3.32404,-5.53203 -0.48441,-9.65707 -0.48441,-9.65707 1.73258,1.84636 1.24666,4.23258 1.24666,4.23258 -2.63007,-4.88229 -0.76225,5.42449 -0.76225,5.42449 z"
       style="fill:#ffffff;fill-opacity:1;fill-rule:nonzero;stroke:none;stroke-width:1.90827787"
       id="path134"
       inkscape:connector-curvature="0" /><path
       d="m 353.25093,541.56082 c -3.32402,-5.53434 -0.48441,-9.65941 -0.48441,-9.65941 1.7326,1.84637 1.2467,4.23257 1.2467,4.23257 -2.6316,-4.87994 -0.76229,5.42684 -0.76229,5.42684 z"
       style="fill:#ffffff;fill-opacity:1;fill-rule:nonzero;stroke:none;stroke-width:1.90827787"
       id="path136"
       inkscape:connector-curvature="0" /><path
       d="m 47.408928,527.47487 14.480399,9.87442 c -0.07134,0.8624 0.554256,2.60122 0.554256,2.60122 L 48.86364,530.83803 c -1.867816,-1.19429 -1.454712,-3.36316 -1.454712,-3.36316 z"
       style="fill:#ffffff;fill-opacity:1;fill-rule:nonzero;stroke:none;stroke-width:1.90827787"
       id="path138"
       inkscape:connector-curvature="0" /><path
       d="m 425.45685,569.94066 14.48186,9.87441 c -0.0727,0.86476 0.55278,2.60125 0.55278,2.60125 l -13.57992,-9.11249 c -1.86931,-1.19196 -1.45472,-3.36317 -1.45472,-3.36317 z"
       style="fill:#ffffff;fill-opacity:1;fill-rule:nonzero;stroke:none;stroke-width:1.90827787"
       id="path140"
       inkscape:connector-curvature="0" /><path
       d="m 402.74288,558.82292 14.4804,9.87207 c -0.0729,0.86472 0.55425,2.60124 0.55425,2.60124 l -13.58142,-9.11253 c -1.86931,-1.19425 -1.45323,-3.36078 -1.45323,-3.36078 z"
       style="fill:#ffffff;fill-opacity:1;fill-rule:nonzero;stroke:none;stroke-width:1.90827787"
       id="path142"
       inkscape:connector-curvature="0" /><path
       d="m 211.02196,517.83419 14.48338,9.86974 c -0.073,0.86707 0.55276,2.60358 0.55276,2.60358 l -13.57994,-9.1125 c -1.86928,-1.19428 -1.4562,-3.36082 -1.4562,-3.36082 z"
       style="fill:#ffffff;fill-opacity:1;fill-rule:nonzero;stroke:none;stroke-width:1.90827787"
       id="path144"
       inkscape:connector-curvature="0" /><path
       d="m 182.53365,517.83419 14.48043,9.86974 c -0.0699,0.86707 0.55423,2.60358 0.55423,2.60358 l -13.57993,-9.1125 c -1.87076,-1.19428 -1.45473,-3.36082 -1.45473,-3.36082 z"
       style="fill:#ffffff;fill-opacity:1;fill-rule:nonzero;stroke:none;stroke-width:1.90827787"
       id="path146"
       inkscape:connector-curvature="0" /><path
       d="m 170.21378,517.83419 14.48191,9.86974 c -0.0729,0.86707 0.55276,2.60358 0.55276,2.60358 l -13.57994,-9.1125 c -1.87078,-1.19428 -1.45473,-3.36082 -1.45473,-3.36082 z"
       style="fill:#ffffff;fill-opacity:1;fill-rule:nonzero;stroke:none;stroke-width:1.90827787"
       id="path148"
       inkscape:connector-curvature="0" /><path
       d="m 147.8832,543.75305 14.4819,9.8744 c -0.0728,0.86707 0.55425,2.60359 0.55425,2.60359 l -13.58141,-9.11251 c -1.86933,-1.19427 -1.45474,-3.36548 -1.45474,-3.36548 z"
       style="fill:#ffffff;fill-opacity:1;fill-rule:nonzero;stroke:none;stroke-width:1.90827787"
       id="path150"
       inkscape:connector-curvature="0" /><path
       d="m 136.71939,563.64676 14.47893,9.87207 c -0.0713,0.86474 0.55277,2.6059 0.55277,2.6059 l -13.57844,-9.11249 c -1.86931,-1.19894 -1.45326,-3.36548 -1.45326,-3.36548 z"
       style="fill:#ffffff;fill-opacity:1;fill-rule:nonzero;stroke:none;stroke-width:1.90827787"
       id="path152"
       inkscape:connector-curvature="0" /><path
       d="m 63.572879,573.40197 10.030053,6.83848 c -0.04742,0.59597 0.383355,1.7996 0.383355,1.7996 l -9.405938,-6.31028 c -1.297226,-0.82735 -1.00747,-2.3278 -1.00747,-2.3278 z"
       style="fill:#ffffff;fill-opacity:1;fill-rule:nonzero;stroke:none;stroke-width:1.90827787"
       id="path154"
       inkscape:connector-curvature="0" /><path
       d="m 110.92508,518.38344 9.44906,7.09087 c -0.0489,0.62167 0.35959,1.87202 0.35959,1.87202 l -8.86211,-6.5463 c -1.21845,-0.85774 -0.94654,-2.41659 -0.94654,-2.41659 z"
       style="fill:#ffffff;fill-opacity:1;fill-rule:nonzero;stroke:none;stroke-width:1.90827787"
       id="path156"
       inkscape:connector-curvature="0" /><path
       d="m 89.749062,518.38344 9.450543,7.09087 c -0.04899,0.62167 0.361067,1.87202 0.361067,1.87202 l -8.862107,-6.5463 c -1.219949,-0.85774 -0.949503,-2.41659 -0.949503,-2.41659 z"
       style="fill:#ffffff;fill-opacity:1;fill-rule:nonzero;stroke:none;stroke-width:1.90827787"
       id="path158"
       inkscape:connector-curvature="0" /><path
       d="m 310.39218,516.66796 8.13401,5.54371 c -0.0387,0.48847 0.31203,1.46069 0.31203,1.46069 l -7.62878,-5.11599 c -1.05055,-0.67308 -0.81726,-1.88841 -0.81726,-1.88841 z"
       style="fill:#ffffff;fill-opacity:1;fill-rule:nonzero;stroke:none;stroke-width:1.90827787"
       id="path160"
       inkscape:connector-curvature="0" /><path
       d="m 288.06456,516.66796 8.13402,5.54371 c -0.0418,0.48847 0.31055,1.46069 0.31055,1.46069 l -7.63026,-5.11599 c -1.04758,-0.67308 -0.81431,-1.88841 -0.81431,-1.88841 z"
       style="fill:#ffffff;fill-opacity:1;fill-rule:nonzero;stroke:none;stroke-width:1.90827787"
       id="path162"
       inkscape:connector-curvature="0" /><path
       d="m 348.07542,569.94066 14.48043,9.87441 c -0.0727,0.86476 0.55274,2.60125 0.55274,2.60125 l -13.57992,-9.11249 c -1.8708,-1.19196 -1.45325,-3.36317 -1.45325,-3.36317 z"
       style="fill:#ffffff;fill-opacity:1;fill-rule:nonzero;stroke:none;stroke-width:1.90827787"
       id="path164"
       inkscape:connector-curvature="0" /><path
       d="m 217.95085,569.94066 14.48041,9.87441 c -0.0714,0.86476 0.55427,2.60125 0.55427,2.60125 l -13.58145,-9.11249 c -1.86782,-1.19196 -1.45323,-3.36317 -1.45323,-3.36317 z"
       style="fill:#ffffff;fill-opacity:1;fill-rule:nonzero;stroke:none;stroke-width:1.90827787"
       id="path166"
       inkscape:connector-curvature="0" /><path
       d="m 196.77484,569.94066 14.48336,9.87441 c -0.0728,0.86476 0.55427,2.60125 0.55427,2.60125 l -13.58144,-9.11249 c -1.86927,-1.19196 -1.45619,-3.36317 -1.45619,-3.36317 z"
       style="fill:#ffffff;fill-opacity:1;fill-rule:nonzero;stroke:none;stroke-width:1.90827787"
       id="path168"
       inkscape:connector-curvature="0" /><path
       d="m 261.07111,552.79542 14.48191,9.87209 c -0.0714,0.86473 0.55276,2.60357 0.55276,2.60357 l -13.57992,-9.11249 c -1.87078,-1.19429 -1.45475,-3.36317 -1.45475,-3.36317 z"
       style="fill:#ffffff;fill-opacity:1;fill-rule:nonzero;stroke:none;stroke-width:1.90827787"
       id="path170"
       inkscape:connector-curvature="0" /><path
       d="m 423.41369,582.41632 c -2.14866,-0.97924 -3.32403,-5.4245 -3.32403,-5.4245 -0.41607,1.84165 -2.70293,4.66259 -2.70293,4.66259 -1.80095,1.62898 -1.80095,-2.49607 -1.80095,-2.49607 -0.20504,-2.27869 1.38342,-0.43238 1.38342,-0.43238 0.69391,0.10745 1.66424,-2.17118 1.66424,-2.17118 1.31506,-2.38389 2.77275,-5.20481 2.77275,-5.20481 l -0.14113,4.87994 c 0.41603,3.68801 2.77126,2.60356 2.77126,2.60356 1.52456,1.95387 -0.62261,3.58285 -0.62261,3.58285 z"
       style="fill:#ffffff;fill-opacity:1;fill-rule:nonzero;stroke:none;stroke-width:1.90827787"
       id="path172"
       inkscape:connector-curvature="0" /><path
       d="m 362.4117,572.09084 -0.48738,-3.36548 c 1.03867,-3.47062 -0.13665,-3.47062 -0.13665,-3.47062 -1.45622,0.10979 -1.59589,3.47062 -1.59589,3.47062 -0.0668,1.73883 -0.62113,1.73883 -0.62113,1.73883 -0.62406,0 -0.41605,-1.84632 -0.41605,-1.84632 l 0.41605,-3.2533 c 0,-1.84635 -1.52605,-1.95151 -1.52605,-1.95151 -1.59291,0 -1.10849,4.01284 -1.10849,4.01284 0.13973,2.49608 -0.55278,2.92611 -0.55278,2.92611 -1.31504,-7.80605 0.41606,-8.67544 0.41606,-8.67544 2.1472,-1.62899 3.25421,2.27869 3.25421,2.27869 1.24669,-1.84635 2.84108,0.10745 2.84108,0.10745 1.17836,5.20715 -0.48291,8.02808 -0.48291,8.02808 z"
       style="fill:#ffffff;fill-opacity:1;fill-rule:nonzero;stroke:none;stroke-width:1.90827787"
       id="path174"
       inkscape:connector-curvature="0" /><path
       d="m 236.21741,577.26993 -0.48738,-3.3655 c 1.04015,-3.46829 -0.13819,-3.46829 -0.13819,-3.46829 -1.45475,0.10508 -1.59443,3.46829 -1.59443,3.46829 -0.0683,1.73653 -0.6226,1.73653 -0.6226,1.73653 -0.6226,0 -0.41458,-1.844 -0.41458,-1.844 l 0.41458,-3.25566 c 0,-1.84163 -1.5231,-1.94914 -1.5231,-1.94914 -1.5929,0 -1.10849,4.01288 -1.10849,4.01288 0.13665,2.49136 -0.55126,2.92841 -0.55126,2.92841 -1.31952,-7.8107 0.41309,-8.68012 0.41309,-8.68012 2.14716,-1.62664 3.25715,2.27637 3.25715,2.27637 1.24669,-1.84166 2.83665,0.10981 2.83665,0.10981 1.17983,5.20945 -0.48145,8.03039 -0.48145,8.03039 z"
       style="fill:#ffffff;fill-opacity:1;fill-rule:nonzero;stroke:none;stroke-width:1.90827787"
       id="path176"
       inkscape:connector-curvature="0" /><path
       d="m 425.51925,555.42939 c -1.45471,-0.2197 -0.55277,6.07656 -0.55277,6.07656 0.13819,1.08444 -0.20804,2.60357 -0.20804,2.60357 -1.24966,-2.17121 -1.4562,-8.02806 -1.4562,-8.02806 -0.13526,-5.20714 2.63453,-3.25333 2.63453,-3.25333 1.59444,2.16656 1.10853,5.31234 1.10853,5.31234 -0.0729,-1.62431 -1.52605,-2.71108 -1.52605,-2.71108 z"
       style="fill:#ffffff;fill-opacity:1;fill-rule:nonzero;stroke:none;stroke-width:1.90827787"
       id="path178"
       inkscape:connector-curvature="0" /><path
       d="m 248.19253,530.07614 c 0,0 0.20657,2.70872 0.68801,2.82091 0,0 -3.25569,-0.6544 -3.59745,-4.77478 0,0 -1.31951,3.47066 -2.4949,3.7955 0,0 -2.63601,-0.97458 -1.59439,-4.55741 0,0 0.34622,-0.75955 0.97033,0.43705 0,0 0.27637,1.19195 1.24371,-0.2173 0,0 2.28834,-3.36547 0.62411,-6.94129 0,0 -0.97181,-2.27871 -4.50239,-3.68802 0,0 3.60488,-1.30647 5.33451,2.60124 0,0 1.24669,4.12037 0.83211,6.51127 0,0 0.13819,4.4429 2.49635,4.01287 z"
       style="fill:#ffffff;fill-opacity:1;fill-rule:nonzero;stroke:none;stroke-width:1.90827787"
       id="path180"
       inkscape:connector-curvature="0" /><path
       d="m 309.6091,563.61169 c -0.27639,-2.42127 -4.14131,-3.94975 -4.14131,-3.94975 1.11891,-1.21065 3.14277,0.46045 3.14277,0.46045 3.74304,2.683 2.71629,5.12298 2.71629,5.12298 -1.33586,3.4356 -4.75649,-0.0747 -4.75649,-0.0747 2.59891,1.45369 3.03874,-1.55887 3.03874,-1.55887 z"
       style="fill:#ffffff;fill-opacity:1;fill-rule:nonzero;stroke:none;stroke-width:1.90827787"
       id="path182"
       inkscape:connector-curvature="0" /><path
       d="m 266.86625,563.61169 c -0.27785,-2.42127 -4.14425,-3.94975 -4.14425,-3.94975 1.12337,-1.21065 3.14572,0.46045 3.14572,0.46045 3.74304,2.683 2.71479,5.12298 2.71479,5.12298 -1.33586,3.4356 -4.7535,-0.0747 -4.7535,-0.0747 2.59445,1.45369 3.03724,-1.55887 3.03724,-1.55887 z"
       style="fill:#ffffff;fill-opacity:1;fill-rule:nonzero;stroke:none;stroke-width:1.90827787"
       id="path184"
       inkscape:connector-curvature="0" /><path
       d="m 351.62234,555.2728 c -0.18723,-2.43998 -3.99417,-4.31202 -3.99417,-4.31202 1.16645,-1.11247 3.12789,0.74089 3.12789,0.74089 3.63905,3.01021 2.52161,5.3637 2.52161,5.3637 -1.45621,3.30007 -4.7431,-0.51182 -4.7431,-0.51182 2.54096,1.68975 3.08777,-1.28075 3.08777,-1.28075 z"
       style="fill:#ffffff;fill-opacity:1;fill-rule:nonzero;stroke:none;stroke-width:1.90827787"
       id="path186"
       inkscape:connector-curvature="0" /><path
       d="m 222.9525,558.54011 c -0.18575,-2.44699 -3.99269,-4.31202 -3.99269,-4.31202 1.16496,-1.11248 3.1249,0.73621 3.1249,0.73621 3.63904,3.01491 2.52311,5.36141 2.52311,5.36141 -1.45769,3.3047 -4.74457,-0.50718 -4.74457,-0.50718 2.54094,1.68742 3.08925,-1.27842 3.08925,-1.27842 z"
       style="fill:#ffffff;fill-opacity:1;fill-rule:nonzero;stroke:none;stroke-width:1.90827787"
       id="path188"
       inkscape:connector-curvature="0" /><path
       d="m 67.422938,524.17953 c -0.188721,-2.44464 -3.994174,-4.31204 -3.994174,-4.31204 1.164958,-1.11481 3.127873,0.73856 3.127873,0.73856 3.637575,3.01022 2.520154,5.36138 2.520154,5.36138 -1.456226,3.30005 -4.743115,-0.50948 -4.743115,-0.50948 2.540965,1.68975 3.089262,-1.27842 3.089262,-1.27842 z"
       style="fill:#ffffff;fill-opacity:1;fill-rule:nonzero;stroke:none;stroke-width:1.90827787"
       id="path190"
       inkscape:connector-curvature="0" /><path
       d="m 398.84379,521.0875 c -1.17685,1.62896 0,7.5957 0,7.5957 -1.24521,-0.86942 -1.38637,-4.44758 -1.38637,-4.44758 -0.48291,-6.39908 1.38637,-6.29624 1.38637,-6.29624 2.56473,0 2.42653,6.40374 2.42653,6.40374 -0.55275,-4.23255 -2.42653,-3.25562 -2.42653,-3.25562 z"
       style="fill:#ffffff;fill-opacity:1;fill-rule:nonzero;stroke:none;stroke-width:1.90827787"
       id="path192"
       inkscape:connector-curvature="0" /><path
       d="m 328.86232,582.41632 c -1.87228,-0.64973 -2.70142,-5.42217 -2.70142,-5.42217 -0.41458,1.40929 -2.91094,4.33774 -2.91094,4.33774 -0.69243,0.10981 -1.38489,-2.38388 -1.38489,-2.38388 -0.14129,-1.95386 0.76377,-1.73883 0.76377,-1.73883 0.27341,1.30411 1.86929,-0.75958 1.86929,-0.75958 2.42357,-2.49139 1.86781,-7.70086 1.86781,-7.70086 -0.96881,-3.25563 -5.19479,-7.92055 -5.19479,-7.92055 2.90947,0.75955 4.71189,4.01754 4.71189,4.01754 2.14718,4.33306 1.107,11.06401 1.107,11.06401 -0.20653,3.36312 2.49489,3.57813 2.49489,3.57813 0.97032,3.03594 -0.62261,2.92845 -0.62261,2.92845 z"
       style="fill:#ffffff;fill-opacity:1;fill-rule:nonzero;stroke:none;stroke-width:1.90827787"
       id="path194"
       inkscape:connector-curvature="0" /><path
       d="m 265.72505,582.41632 c -1.86927,-0.64973 -2.69992,-5.42217 -2.69992,-5.42217 -0.41608,1.40929 -2.90946,4.33774 -2.90946,4.33774 -0.69395,0.10981 -1.38786,-2.38388 -1.38786,-2.38388 -0.1382,-1.95386 0.76526,-1.73883 0.76526,-1.73883 0.27342,1.30411 1.8678,-0.75958 1.8678,-0.75958 2.42654,-2.49139 1.87228,-7.70086 1.87228,-7.70086 -0.97181,-3.25563 -5.19778,-7.92055 -5.19778,-7.92055 2.90945,0.75955 4.71188,4.01754 4.71188,4.01754 2.14716,4.33306 1.10853,11.06401 1.10853,11.06401 -0.20806,3.36312 2.49338,3.57813 2.49338,3.57813 0.97031,3.03594 -0.62411,2.92845 -0.62411,2.92845 z"
       style="fill:#ffffff;fill-opacity:1;fill-rule:nonzero;stroke:none;stroke-width:1.90827787"
       id="path196"
       inkscape:connector-curvature="0" /><path
       d="m 159.46604,582.41632 c -1.86929,-0.64973 -2.70291,-5.42217 -2.70291,-5.42217 -0.4131,1.40929 -2.90798,4.33774 -2.90798,4.33774 -0.69242,0.10981 -1.38636,-2.38388 -1.38636,-2.38388 -0.13815,-1.95386 0.76377,-1.73883 0.76377,-1.73883 0.27487,1.30411 1.86931,-0.75958 1.86931,-0.75958 2.42651,-2.49139 1.8693,-7.70086 1.8693,-7.70086 -0.96882,-3.25563 -5.19631,-7.92055 -5.19631,-7.92055 2.91093,0.75955 4.71338,4.01754 4.71338,4.01754 2.14567,4.33306 1.10851,11.06401 1.10851,11.06401 -0.20953,3.36312 2.49041,3.57813 2.49041,3.57813 0.97329,3.03594 -0.62112,2.92845 -0.62112,2.92845 z"
       style="fill:#ffffff;fill-opacity:1;fill-rule:nonzero;stroke:none;stroke-width:1.90827787"
       id="path198"
       inkscape:connector-curvature="0" /><path
       d="m 113.27137,582.41632 c -1.87375,-0.64973 -2.70288,-5.42217 -2.70288,-5.42217 -0.41609,1.40929 -2.91095,4.33774 -2.91095,4.33774 -0.69247,0.10981 -1.38639,-2.38388 -1.38639,-2.38388 -0.13816,-1.95386 0.76377,-1.73883 0.76377,-1.73883 0.27638,1.30411 1.87078,-0.75958 1.87078,-0.75958 2.42357,-2.49139 1.86931,-7.70086 1.86931,-7.70086 -0.97179,-3.25563 -5.1963,-7.92055 -5.1963,-7.92055 2.90946,0.75955 4.71039,4.01754 4.71039,4.01754 2.14719,4.33306 1.10852,11.06401 1.10852,11.06401 -0.20953,3.36312 2.49488,3.57813 2.49488,3.57813 0.96882,3.03594 -0.62113,2.92845 -0.62113,2.92845 z"
       style="fill:#ffffff;fill-opacity:1;fill-rule:nonzero;stroke:none;stroke-width:1.90827787"
       id="path200"
       inkscape:connector-curvature="0" /><path
       d="m 124.297,582.41632 c -1.2987,-0.44872 -1.87376,-3.75813 -1.87376,-3.75813 -0.28828,0.97693 -2.01641,3.00557 -2.01641,3.00557 -0.48144,0.077 -0.9614,-1.65469 -0.9614,-1.65469 -0.0966,-1.35088 0.53047,-1.19897 0.53047,-1.19897 0.18873,0.89982 1.29575,-0.52818 1.29575,-0.52818 1.68058,-1.72714 1.29423,-5.33569 1.29423,-5.33569 -0.67016,-2.25534 -3.60041,-5.48992 -3.60041,-5.48992 2.01643,0.52818 3.2646,2.7835 3.2646,2.7835 1.48742,3.00791 0.76823,7.67051 0.76823,7.67051 -0.14259,2.32544 1.72813,2.47972 1.72813,2.47972 0.67163,2.09873 -0.42943,2.02628 -0.42943,2.02628 z"
       style="fill:#ffffff;fill-opacity:1;fill-rule:nonzero;stroke:none;stroke-width:1.90827787"
       id="path202"
       inkscape:connector-curvature="0" /><path
       d="m 27.281962,532.38521 c -1.297223,-0.45106 -1.872274,-3.75811 -1.872274,-3.75811 -0.289757,0.97692 -2.016418,3.00322 -2.016418,3.00322 -0.481434,0.0794 -0.961388,-1.65002 -0.961388,-1.65002 -0.09658,-1.3532 0.52898,-1.20363 0.52898,-1.20363 0.190202,0.90214 1.294252,-0.52352 1.294252,-0.52352 1.68208,-1.72947 1.297228,-5.33803 1.297228,-5.33803 -0.671655,-2.25766 -3.60042,-5.48759 -3.60042,-5.48759 2.016395,0.52353 3.263105,2.7812 3.263105,2.7812 1.48891,3.0079 0.769712,7.66813 0.769712,7.66813 -0.145621,2.32781 1.728141,2.48205 1.728141,2.48205 0.671652,2.09876 -0.430918,2.0263 -0.430918,2.0263 z"
       style="fill:#ffffff;fill-opacity:1;fill-rule:nonzero;stroke:none;stroke-width:1.90827787"
       id="path204"
       inkscape:connector-curvature="0" /><path
       d="m 186.03005,582.41632 c -1.8708,-0.64973 -2.70141,-5.42217 -2.70141,-5.42217 -0.41457,1.40929 -2.91094,4.33774 -2.91094,4.33774 -0.69246,0.10981 -1.38639,-2.38388 -1.38639,-2.38388 -0.13818,-1.95386 0.76527,-1.73883 0.76527,-1.73883 0.2734,1.30411 1.86929,-0.75958 1.86929,-0.75958 2.42356,-2.49139 1.86929,-7.70086 1.86929,-7.70086 -0.9688,-3.25563 -5.19627,-7.92055 -5.19627,-7.92055 2.90943,0.75955 4.71186,4.01754 4.71186,4.01754 2.14717,4.33306 1.1085,11.06401 1.1085,11.06401 -0.20949,3.36312 2.49342,3.57813 2.49342,3.57813 0.9703,3.03594 -0.62262,2.92845 -0.62262,2.92845 z"
       style="fill:#ffffff;fill-opacity:1;fill-rule:nonzero;stroke:none;stroke-width:1.90827787"
       id="path206"
       inkscape:connector-curvature="0" /><path
       d="m 345.80048,582.41632 c -1.87229,-0.64973 -2.70294,-5.42217 -2.70294,-5.42217 -0.41307,1.40929 -2.90944,4.33774 -2.90944,4.33774 -0.69393,0.10981 -1.38342,-2.38388 -1.38342,-2.38388 -0.14114,-1.95386 0.76082,-1.73883 0.76082,-1.73883 0.27492,1.30411 1.8708,-0.75958 1.8708,-0.75958 2.4265,-2.49139 1.86779,-7.70086 1.86779,-7.70086 -0.96883,-3.25563 -5.19628,-7.92055 -5.19628,-7.92055 2.90945,0.75955 4.71337,4.01754 4.71337,4.01754 2.14716,4.33306 1.10701,11.06401 1.10701,11.06401 -0.20654,3.36312 2.4949,3.57813 2.4949,3.57813 0.97178,3.03594 -0.62261,2.92845 -0.62261,2.92845 z"
       style="fill:#ffffff;fill-opacity:1;fill-rule:nonzero;stroke:none;stroke-width:1.90827787"
       id="path208"
       inkscape:connector-curvature="0" /><path
       d="m 180.97491,547.42003 c 0.81577,2.46101 -0.56019,1.30176 -0.56019,1.30176 -0.96733,-0.57727 -0.20359,1.73651 -0.20359,1.73651 0.25262,1.8814 -0.20209,0.86941 -0.20209,0.86941 -2.29725,-7.23579 0.0982,-5.35204 0.0982,-5.35204 -1.425,-3.18084 -1.27195,-7.95563 -1.27195,-7.95563 1.93616,-0.72215 5.40433,4.19517 5.40433,4.19517 l -3.41765,-0.72451 c -2.90348,-2.60356 0.15305,5.92933 0.15305,5.92933 z"
       style="fill:#ffffff;fill-opacity:1;fill-rule:nonzero;stroke:none;stroke-width:1.90827787"
       id="path210"
       inkscape:connector-curvature="0" /><path
       d="m 434.55222,527.34401 c 1.47854,2.45867 -1.01487,1.30411 -1.01487,1.30411 -1.75491,-0.5796 -0.36999,1.73418 -0.36999,1.73418 0.4621,1.88373 -0.37001,0.8694 -0.37001,0.8694 -4.15465,-7.23344 0.18723,-5.35205 0.18723,-5.35205 -2.5885,-3.18319 -2.31212,-7.96027 -2.31212,-7.96027 3.51272,-0.71752 9.79378,4.19982 9.79378,4.19982 l -6.18892,-0.7245 c -5.26315,-2.60592 0.2749,5.92931 0.2749,5.92931 z"
       style="fill:#ffffff;fill-opacity:1;fill-rule:nonzero;stroke:none;stroke-width:1.90827787"
       id="path212"
       inkscape:connector-curvature="0" /><path
       d="m 433.46453,556.19363 c 0.46212,-5.57172 1.77122,-6.64448 5.02689,-8.53756 0.39674,-0.23142 2.33741,-1.89074 2.08924,-2.90739 -0.43985,-1.79491 -1.6063,-2.69473 -2.63309,-3.38652 -1.47548,-0.99562 -3.1888,-1.00965 -4.71633,-0.38795 -2.55728,1.04235 -1.80246,3.41687 -0.0223,5.34503 0.56469,0.61233 1.13824,0.41832 1.72371,0.10745 0.96139,-0.51418 -0.87671,-2.55449 -1.47851,-3.42159 -2.83815,-4.0853 -7.11465,-4.87527 -10.351,-1.47238 0.25854,-0.27112 -0.5424,-3.7254 0,-4.29566 4.2676,-4.4873 12.65866,-0.91851 12.82062,8.40901 0.0491,2.79288 -0.29568,6.4435 -2.71482,4.9711 -1.94802,-1.18728 -2.32992,-5.37308 -2.2794,-8.18934 0.156,-8.97927 8.36879,-7.3643 10.0479,-0.49081 0.52299,2.13614 0.21991,5.6372 -0.44726,7.56534 -0.69995,2.0263 -2.51869,2.75548 -3.78469,3.40986 -2.24523,1.1639 -2.85003,3.46131 -3.14426,6.99275 -0.0283,0.35291 -0.20801,-2.85835 -0.13663,-3.7114 v 0 z"
       style="fill:#ffffff;fill-opacity:1;fill-rule:nonzero;stroke:none;stroke-width:1.90827787"
       id="path214"
       inkscape:connector-curvature="0" /><path
       d="m 424.79857,540.15853 c -0.85889,0.29915 -2.30617,1.38593 -2.54838,5.31233 0,0 -2.90797,-6.72862 -5.54103,-7.2685 l -0.12334,-4.18583 c 0,0 3.03425,0.28282 4.83371,7.00441 0,0 0.83657,-4.23255 3.37903,-4.97343 0,1.36955 0,2.74146 0,4.11102 z"
       style="fill:#ffffff;fill-opacity:1;fill-rule:nonzero;stroke:none;stroke-width:1.90827787"
       id="path216"
       inkscape:connector-curvature="0" /></g></svg>