<?xml version="1.0" standalone="no"?>
<!DOCTYPE svg PUBLIC "-//W3C//DTD SVG 20010904//EN"
 "http://www.w3.org/TR/2001/REC-SVG-20010904/DTD/svg10.dtd">
<svg version="1.0" xmlns="http://www.w3.org/2000/svg"
 width="700.000000pt" height="700.000000pt" viewBox="0 0 700.000000 700.000000"
 preserveAspectRatio="xMidYMid meet">
<metadata>
Created by potrace 1.11, written by Peter Selinger 2001-2013
</metadata>
<g transform="translate(0.000000,700.000000) scale(0.100000,-0.100000)"
fill="#000000" stroke="none">
<path d="M4698 6930 c57 -56 68 -80 52 -109 -15 -30 -62 -39 -182 -37 -60 1
-108 1 -108 1 0 -1 27 -18 59 -39 66 -43 87 -72 77 -109 -7 -29 -67 -64 -126
-73 -22 -4 -40 -9 -40 -13 0 -3 37 -19 83 -35 949 -332 1564 -968 1803 -1863
30 -114 49 -215 70 -368 3 -27 8 -59 10 -70 25 -134 22 -559 -6 -745 -6 -36
-13 -87 -16 -115 -8 -68 -40 -230 -65 -328 -137 -537 -466 -1038 -922 -1405
-148 -119 -210 -162 -367 -257 -144 -88 -131 -81 -258 -144 -87 -44 -129 -63
-227 -106 -16 -7 -82 -32 -145 -55 -127 -45 -174 -70 -236 -124 -49 -42 -106
-124 -125 -181 -7 -22 -16 -43 -19 -47 -3 -4 -62 -23 -130 -42 -69 -19 -181
-56 -250 -82 -69 -25 -136 -48 -150 -51 -14 -2 -73 14 -134 36 -60 22 -162 54
-226 72 l-116 32 -14 44 c-13 46 -62 124 -103 165 -69 69 -122 97 -312 168
-134 50 -347 149 -485 225 -81 45 -331 211 -386 256 -23 19 -61 50 -85 69
-180 145 -370 345 -506 532 -210 288 -364 645 -441 1023 -20 94 -25 127 -37
235 -3 25 -8 54 -10 65 -25 120 -25 671 0 765 2 8 6 38 10 65 40 341 178 739
360 1040 301 495 782 883 1385 1113 156 60 144 56 182 66 32 9 28 26 -5 26
-26 0 -122 43 -131 59 -26 42 3 87 87 135 26 16 47 29 47 29 0 1 -51 1 -113 0
-133 -2 -180 12 -185 59 -3 23 8 39 52 83 30 30 53 55 51 55 -9 0 -221 -74
-230 -80 -5 -4 -21 -11 -35 -15 -40 -11 -328 -153 -398 -196 -35 -21 -66 -39
-68 -39 -9 0 -185 -118 -274 -183 -147 -108 -301 -246 -424 -376 -22 -24 -48
-51 -56 -60 -68 -70 -225 -276 -295 -385 -163 -255 -291 -542 -375 -841 -42
-149 -86 -351 -95 -437 -3 -29 -10 -78 -15 -108 -16 -96 -25 -278 -25 -510 1
-320 11 -452 51 -670 9 -47 18 -96 21 -110 2 -14 13 -56 24 -95 11 -38 22 -81
25 -95 11 -54 88 -276 135 -392 55 -134 181 -383 229 -453 16 -24 30 -46 30
-49 0 -8 101 -155 158 -231 150 -198 386 -437 571 -577 31 -24 58 -46 61 -49
10 -12 247 -167 316 -207 207 -120 475 -239 715 -317 125 -41 153 -47 234 -47
142 -2 255 42 318 123 l25 32 73 -16 c41 -8 115 -27 164 -42 50 -15 100 -30
113 -32 12 -3 22 -8 22 -12 0 -3 -37 -24 -82 -46 -213 -105 -510 -289 -501
-311 7 -18 61 -57 100 -73 31 -13 32 -12 100 56 86 88 202 175 323 245 167 95
159 93 232 62 188 -78 384 -210 522 -351 l55 -56 42 18 c53 25 89 53 89 71 0
11 -200 154 -216 154 -3 0 -35 18 -72 41 -37 22 -136 74 -219 115 -84 42 -153
77 -153 79 0 7 217 75 305 96 148 35 136 36 197 -24 52 -53 101 -77 183 -92
50 -9 177 -7 225 4 121 27 437 150 630 245 135 67 392 219 398 237 2 5 8 9 14
9 13 0 180 126 282 213 244 208 509 527 673 812 42 72 134 254 173 338 59 133
183 512 206 632 2 11 8 43 14 70 19 91 20 100 25 140 3 22 8 53 11 69 31 147
37 783 9 966 -2 14 -11 79 -20 145 -9 65 -23 146 -30 180 -8 33 -17 75 -20 94
-19 111 -93 348 -161 517 -288 720 -862 1318 -1606 1673 -139 66 -406 171
-436 171 -3 0 18 -22 46 -50z"/>
<path d="M3328 6565 c-2 -2 -34 -6 -73 -10 -117 -12 -143 -15 -230 -31 -354
-66 -698 -198 -989 -382 -324 -204 -630 -502 -836 -811 -262 -394 -412 -814
-458 -1281 -14 -144 -6 -524 13 -630 3 -14 7 -41 10 -60 13 -80 16 -96 20
-110 2 -8 7 -31 10 -50 13 -80 93 -347 124 -415 5 -11 28 -63 51 -116 123
-287 330 -588 570 -829 368 -368 812 -619 1320 -744 54 -14 117 -28 141 -31
24 -4 46 -8 49 -10 3 -2 30 -6 60 -9 30 -3 66 -8 80 -11 40 -8 257 -19 360
-18 129 0 289 13 410 33 30 5 71 12 90 15 28 5 128 27 175 39 6 2 24 6 40 10
70 18 228 73 337 117 644 265 1187 791 1470 1424 81 180 138 352 177 530 23
106 32 153 46 255 25 177 25 526 0 705 -2 17 -6 46 -9 65 -16 120 -59 298
-105 439 -181 552 -530 1031 -1001 1378 -312 230 -685 398 -1060 477 -112 24
-138 28 -230 40 -25 4 -63 9 -85 12 -43 6 -472 14 -477 9z"/>
</g>
</svg>
